<svg width="500" height="500" viewBox="0 0 500 500" fill="none" xmlns="http://www.w3.org/2000/svg">
<g clip-path="url(#clip0_4207_11746)">
<path d="M0 250C0 111.929 111.929 0 250 0C388.071 0 500 111.929 500 250C500 388.071 388.071 500 250 500C111.929 500 0 388.071 0 250Z" fill="#E6A820"/>
<path d="M342.648 160.386C291.148 108.887 207.668 108.887 156.168 160.386C104.669 211.886 104.731 295.304 156.23 346.804C207.73 398.303 291.148 398.241 342.586 346.804C394.023 295.367 394.085 211.824 342.648 160.386ZM176.401 326.633C136.059 286.291 136.091 220.93 176.401 180.619C216.712 140.309 282.073 140.278 322.415 180.619C362.757 220.961 362.757 286.291 322.415 326.633C282.073 366.975 216.712 366.944 176.401 326.633Z" fill="white" fill-opacity="0.4"/>
<path fill-rule="evenodd" clip-rule="evenodd" d="M170.185 62.3674C195.301 51.9472 222.221 46.584 249.407 46.584C276.593 46.584 303.513 51.9472 328.63 62.3674C353.747 72.7877 376.568 88.0609 395.792 107.315L407.502 119.044C411.038 122.585 411.038 128.321 407.502 131.862L384.102 155.3C380.558 158.849 374.807 158.849 371.263 155.3L359.573 143.591C345.106 129.101 327.931 117.607 309.028 109.765C290.126 101.923 269.867 97.8867 249.407 97.8867C228.948 97.8867 208.688 101.923 189.786 109.765C170.884 117.607 153.709 129.101 139.242 143.591L127.552 155.3C124.008 158.849 118.257 158.849 114.713 155.3L91.3125 131.862C87.7767 128.321 87.7767 122.585 91.3125 119.044L103.023 107.315C122.246 88.0609 145.068 72.7877 170.185 62.3674Z" fill="white"/>
<path fill-rule="evenodd" clip-rule="evenodd" d="M45.4754 278.199C49.0254 305.164 57.8518 331.166 71.4506 354.719C85.0493 378.273 103.154 398.918 124.731 415.475C146.309 432.031 170.936 444.176 197.207 451.215L206.066 453.589C214.841 455.941 223.861 450.733 226.212 441.958L230.96 424.239C233.311 415.464 228.104 406.444 219.329 404.093L210.469 401.719C190.698 396.421 172.165 387.281 155.926 374.821C139.688 362.361 126.062 346.824 115.828 329.098C105.594 311.372 98.9514 291.804 96.2798 271.511C93.6081 251.217 94.9597 230.597 100.257 210.826L102.631 201.966C104.982 193.191 99.7749 184.171 90.9997 181.82L73.2808 177.072C64.5056 174.721 55.4858 179.929 53.1345 188.704L50.7606 197.563C43.7213 223.834 41.9254 251.234 45.4754 278.199Z" fill="white"/>
<path fill-rule="evenodd" clip-rule="evenodd" d="M454.237 278.199C450.687 305.164 441.861 331.166 428.262 354.719C414.663 378.273 396.558 398.918 374.981 415.475C353.404 432.031 328.776 444.176 302.506 451.215L293.646 453.589C284.871 455.941 275.851 450.733 273.5 441.958L268.752 424.239C266.401 415.464 271.608 406.444 280.384 404.093L289.243 401.719C309.014 396.421 327.548 387.281 343.786 374.821C360.025 362.361 373.65 346.824 383.884 329.098C394.118 311.372 400.761 291.804 403.433 271.511C406.104 251.217 404.753 230.597 399.455 210.826L397.081 201.966C394.73 193.191 399.938 184.171 408.713 181.82L426.432 177.072C435.207 174.721 444.227 179.929 446.578 188.704L448.952 197.563C455.991 223.834 457.787 251.234 454.237 278.199Z" fill="white"/>
<path fill-rule="evenodd" clip-rule="evenodd" d="M196.911 240.833H288.047C289.187 240.833 290.232 241.308 291.088 242.163L305.532 256.988C308.193 259.744 306.293 264.401 302.491 264.401H211.356C210.216 264.401 209.17 263.925 208.315 263.07L193.87 248.245C191.209 245.489 193.11 240.833 196.911 240.833ZM193.87 221.161L208.315 206.336C209.075 205.481 210.216 205.006 211.356 205.006H302.396C306.198 205.006 308.098 209.662 305.437 212.418L291.088 227.243C290.327 228.099 289.187 228.574 288.047 228.574H196.911C193.11 228.574 191.209 223.917 193.87 221.161ZM305.437 283.977L290.993 298.802C290.137 299.657 289.092 300.133 287.951 300.133H196.911C193.11 300.133 191.209 295.476 193.87 292.72L208.315 277.895C209.075 277.04 210.216 276.565 211.356 276.565H302.396C306.198 276.565 308.098 281.221 305.437 283.977Z" fill="white"/>
<g style="mix-blend-mode:plus-lighter" filter="url(#filter0_f_4207_11746)">
<path d="M239.801 162.236C247.569 194.399 228.182 226.675 196.499 234.328C164.816 241.98 132.834 222.111 125.066 189.948C117.297 157.786 136.684 125.509 168.368 117.857C200.051 110.204 232.033 130.074 239.801 162.236Z" fill="#E6A820"/>
</g>
</g>
<defs>
<filter id="filter0_f_4207_11746" x="-76.6473" y="-83.7832" width="518.161" height="519.75" filterUnits="userSpaceOnUse" color-interpolation-filters="sRGB">
<feFlood flood-opacity="0" result="BackgroundImageFix"/>
<feBlend mode="normal" in="SourceGraphic" in2="BackgroundImageFix" result="shape"/>
<feGaussianBlur stdDeviation="100" result="effect1_foregroundBlur_4207_11746"/>
</filter>
<clipPath id="clip0_4207_11746">
<path d="M0 250C0 111.929 111.929 0 250 0C388.071 0 500 111.929 500 250C500 388.071 388.071 500 250 500C111.929 500 0 388.071 0 250Z" fill="white"/>
</clipPath>
</defs>
</svg>
