<svg width="868" height="196" viewBox="0 0 868 196" fill="none" xmlns="http://www.w3.org/2000/svg">
<path d="M440.728 58.1562C414.957 58.1562 402.325 71.6094 396.503 77.7158C387.001 65.9255 375.638 58.238 355.591 58.238C340.661 58.238 322.094 66.6752 317.16 77.8385V60.1599H280.182V193.792H318.063V118.062C318.063 103.6 330.13 91.8641 345.046 91.8641C359.961 91.8641 372.029 103.573 372.029 118.062V193.819H409.797L409.839 118.034C409.839 103.573 421.907 91.8368 436.823 91.8368C451.738 91.8368 463.806 103.545 463.806 118.034L463.764 193.792H501.644V121.565C501.644 95.0536 491.409 58.1562 440.728 58.1562Z" fill="white"/>
<path d="M540.817 48.6876C554.718 48.6876 565.996 37.797 565.996 24.3438C565.996 10.8906 554.732 0 540.817 0C526.903 0 515.639 10.8906 515.639 24.3438C515.639 37.797 526.903 48.6876 540.817 48.6876Z" fill="white"/>
<path d="M559.791 60.165H521.008V193.797H559.791V60.165Z" fill="white"/>
<path d="M38.7831 12.5723H0V193.883H38.7831V12.5723Z" fill="white"/>
<path d="M797.129 196C776.941 196 759.883 190.153 746.406 176.945C732.956 163.764 726.133 147.067 726.133 127.358C726.133 107.648 732.956 90.9372 746.406 77.7158C759.869 64.4807 776.941 58.1562 797.129 58.1562C817.318 58.1562 834.39 64.4535 847.811 77.7158C861.218 90.9509 867.999 107.648 867.999 127.358C867.999 147.067 861.19 163.764 847.783 176.945C834.362 190.153 817.318 196 797.129 196ZM797.129 92.3412C787.43 92.3412 779.691 95.5988 773.473 102.278C767.129 109.106 764.028 117.285 764.028 127.33C764.028 137.376 767.115 145.527 773.459 152.315C779.662 158.98 787.43 162.183 797.129 162.183C806.829 162.183 814.597 158.966 820.8 152.315C827.144 145.54 830.231 137.362 830.231 127.33C830.231 117.298 827.13 109.093 820.786 102.278C814.583 95.5988 806.843 92.3412 797.129 92.3412Z" fill="white"/>
<path d="M223.952 60.1645V71.5867C217.284 65.1532 210.489 58.0518 191.048 58.0518C178.557 58.0518 167.222 60.5052 157.382 66.2027C146.781 72.2818 138.181 80.8281 131.78 91.5415C125.366 102.296 122.109 114.304 122.109 127.239C122.109 140.175 125.31 152.115 131.64 162.746C137.955 173.365 146.513 181.815 157.114 187.908C167.307 193.756 178.938 195.882 191.696 195.882C203.764 195.882 216.015 189.816 223.966 182.347V193.769H260.903V60.1645H223.938H223.952ZM194.713 164C174.708 164 158.496 147.521 158.496 127.199C158.496 106.876 174.722 90.3966 194.713 90.3966C214.704 90.3966 230.945 106.876 230.945 127.199C230.945 147.521 214.718 164 194.713 164Z" fill="white"/>
<path d="M659.426 58.1582C641.479 58.1582 624.858 67.604 616.428 80.5392V60.1482H579.068V193.78H617.33V117.586C617.33 103.125 628.989 91.3889 645.906 91.3889C662.824 91.3889 674.483 103.097 674.483 117.586V193.78H712.744V113.893C712.744 93.5562 703.75 58.1445 659.412 58.1445L659.426 58.1582Z" fill="white"/>
<path d="M131.492 191.629C112.066 178.68 98.9406 154.595 98.9406 126.994C98.9406 99.3922 112.066 75.3074 131.492 62.3586V60.1777H77.7515C65.1763 79.0149 57.6621 102.05 57.6621 126.994C57.6621 151.937 65.1622 174.959 77.7515 193.81H131.492V191.629Z" fill="white"/>
</svg>
